<?xml version="1.0" standalone="no"?>
<!DOCTYPE svg PUBLIC "-//W3C//DTD SVG 20010904//EN"
 "http://www.w3.org/TR/2001/REC-SVG-20010904/DTD/svg10.dtd">
<svg version="1.0" xmlns="http://www.w3.org/2000/svg"
 width="432.000000pt" height="433.000000pt" viewBox="0 0 432.000000 433.000000"
 preserveAspectRatio="xMidYMid meet">
<metadata>
Created by potrace 1.16, written by Peter Selinger 2001-2019
</metadata>
<g transform="translate(0.000000,433.000000) scale(0.100000,-0.100000)"
fill="#000000" stroke="none">
<path d="M931 4093 c-42 -21 -75 -88 -65 -130 4 -15 90 -176 192 -356 l184
-329 -30 -31 c-74 -79 -76 -143 -7 -277 58 -115 98 -218 91 -237 -3 -7 -11
-13 -19 -13 -27 0 -61 -49 -60 -86 1 -46 26 -72 81 -86 l44 -11 -7 -86 c-9
-110 -35 -212 -80 -311 -19 -42 -35 -93 -35 -111 1 -49 32 -112 72 -144 l35
-27 -212 -447 c-117 -245 -220 -468 -230 -496 -26 -74 -31 -234 -11 -314 28
-111 73 -189 156 -272 77 -78 141 -118 250 -155 52 -18 97 -19 880 -19 783 0
828 1 880 19 110 38 173 77 250 155 82 83 128 163 156 272 20 78 15 240 -10
310 -9 26 -110 248 -225 495 l-209 449 35 29 c64 53 87 134 58 206 -33 85 -83
228 -88 258 -5 24 -3 32 7 32 8 0 28 12 45 26 25 21 31 33 31 65 0 46 -37 89
-76 89 -22 0 -24 4 -24 43 1 96 39 226 111 372 53 108 60 150 34 211 -8 20
-28 48 -44 63 l-29 28 190 329 c116 200 192 343 195 365 7 46 -18 94 -60 119
-31 19 -59 20 -1227 20 -1096 0 -1198 -2 -1229 -17z m2287 -185 c-8 -13 -90
-155 -182 -316 l-169 -292 -715 2 -715 3 -154 270 c-85 149 -165 289 -179 313
l-25 42 1077 0 1076 0 -14 -22z m-288 -868 c-56 -111 -97 -238 -111 -345 -15
-120 -13 -115 -51 -109 -18 2 -292 29 -608 59 -316 30 -596 57 -622 61 l-46 6
-12 51 c-16 69 -74 219 -111 286 -16 30 -29 58 -29 63 0 4 367 8 815 8 l815 0
-40 -80z m-632 -595 c2 -2 -9 -97 -25 -212 l-29 -208 -423 -3 c-338 -2 -422 0
-418 10 64 142 107 291 107 371 0 19 3 54 6 78 l6 45 387 -39 c212 -21 388
-40 389 -42z m495 -44 c21 -1 27 -6 27 -24 0 -38 40 -185 71 -261 16 -39 29
-77 29 -83 0 -10 -29 -13 -110 -13 -60 0 -110 2 -110 4 0 2 -11 81 -25 176
-34 236 -37 218 33 209 31 -4 69 -8 85 -8z m-298 -206 c8 -60 18 -125 21 -142
l6 -33 -46 0 c-41 0 -46 2 -46 23 0 30 30 248 37 267 7 21 10 11 28 -115z
m-285 -377 c0 -13 -7 -66 -15 -118 -21 -134 -20 -153 11 -184 37 -36 86 -35
123 2 24 24 29 42 45 152 27 188 16 170 100 170 l72 0 13 -91 c6 -50 18 -104
26 -119 32 -61 128 -56 154 8 10 24 10 46 2 101 -16 105 -17 103 30 99 l41 -3
159 -340 c87 -186 159 -343 159 -347 0 -4 -437 -8 -971 -8 -921 0 -971 1 -965
18 4 9 77 166 164 349 l157 332 348 1 347 0 0 -22z"/>
</g>
</svg>
