<?xml version="1.0" standalone="no"?>
<!DOCTYPE svg PUBLIC "-//W3C//DTD SVG 20010904//EN"
 "http://www.w3.org/TR/2001/REC-SVG-20010904/DTD/svg10.dtd">
<svg version="1.0" xmlns="http://www.w3.org/2000/svg"
 width="539.000000pt" height="546.000000pt" viewBox="0 0 539.000000 546.000000"
 preserveAspectRatio="xMidYMid meet">
<metadata>
Created by potrace 1.16, written by Peter Selinger 2001-2019
</metadata>
<g transform="translate(0.000000,546.000000) scale(0.100000,-0.100000)"
fill="#000000" stroke="none">
<path d="M1664 5016 c-80 -36 -92 -100 -44 -236 21 -61 30 -104 30 -151 0 -64
-2 -69 -50 -134 -62 -84 -81 -144 -81 -257 0 -131 45 -295 97 -357 52 -63 146
-62 198 0 35 41 34 91 -4 199 -21 60 -30 104 -30 150 0 63 2 68 50 134 62 85
80 143 80 261 0 150 -58 333 -120 377 -35 25 -89 31 -126 14z"/>
<path d="M2414 5016 c-80 -36 -92 -100 -44 -236 21 -60 30 -104 30 -150 0 -63
-2 -68 -50 -134 -61 -84 -82 -150 -82 -260 1 -128 47 -294 98 -355 52 -63 146
-62 198 0 35 41 34 91 -4 199 -21 60 -30 104 -30 150 0 63 2 68 50 134 62 85
80 143 80 261 0 150 -58 333 -120 377 -35 25 -89 31 -126 14z"/>
<path d="M3164 5016 c-17 -7 -41 -26 -53 -42 -19 -24 -22 -38 -18 -84 3 -30
16 -86 31 -125 18 -49 26 -90 26 -136 0 -63 -2 -69 -40 -117 -77 -96 -103
-198 -89 -343 9 -87 49 -221 82 -270 50 -76 141 -87 204 -24 43 43 44 89 3
205 -21 61 -30 104 -30 151 0 63 2 69 40 117 67 83 84 132 88 253 3 85 0 123
-17 190 -25 100 -66 186 -101 211 -35 25 -89 31 -126 14z"/>
<path d="M1023 3540 c-67 -41 -63 56 -63 -1377 0 -1448 -3 -1371 71 -1521 79
-162 245 -290 424 -327 104 -22 1916 -22 2020 0 179 37 345 165 424 327 56
113 71 190 71 381 l0 157 225 0 c201 0 230 2 279 20 112 42 191 125 226 240
20 63 21 87 18 635 -3 563 -3 571 -25 625 -31 76 -98 149 -175 191 l-63 34
-242 3 -243 3 0 265 c0 293 -3 308 -63 344 -31 20 -61 20 -1442 20 -1381 0
-1411 0 -1442 -20z m2685 -1467 l-3 -1228 -28 -60 c-37 -79 -114 -156 -191
-192 l-61 -28 -960 0 -960 0 -61 28 c-77 36 -154 113 -191 192 l-28 60 -3
1228 -2 1227 1245 0 1245 0 -2 -1227z m688 585 c64 -35 64 -31 64 -603 0 -458
-2 -521 -16 -551 -30 -62 -55 -69 -276 -72 l-198 -4 0 627 0 627 198 -4 c163
-2 202 -6 228 -20z"/>
</g>
</svg>
