<?xml version="1.0" standalone="no"?>
<!DOCTYPE svg PUBLIC "-//W3C//DTD SVG 20010904//EN"
 "http://www.w3.org/TR/2001/REC-SVG-20010904/DTD/svg10.dtd">
<svg version="1.0" xmlns="http://www.w3.org/2000/svg"
 width="600.000000pt" height="600.000000pt" viewBox="0 0 600.000000 600.000000"
 preserveAspectRatio="xMidYMid meet">
<metadata>
Created by potrace 1.16, written by Peter Selinger 2001-2019
</metadata>
<g transform="translate(0.000000,600.000000) scale(0.100000,-0.100000)"
fill="#000000" stroke="none">
<path d="M935 4959 c-173 -26 -295 -88 -425 -219 -78 -77 -104 -111 -138 -180
-23 -47 -51 -121 -62 -164 -19 -77 -20 -115 -20 -1386 0 -1271 1 -1309 20
-1386 11 -43 39 -117 62 -164 34 -69 60 -103 138 -181 80 -80 110 -103 187
-141 180 -90 -31 -83 2358 -83 2383 0 2161 -8 2344 81 80 39 108 60 185 138
103 103 145 168 190 293 l31 88 0 1355 0 1355 -31 88 c-45 125 -87 190 -189
292 -102 102 -198 160 -332 198 l-78 22 -2090 1 c-1155 1 -2117 -2 -2150 -7z
m4244 -204 c105 -25 188 -72 266 -150 63 -62 127 -157 115 -168 -37 -32 -2205
-1665 -2236 -1683 -153 -90 -344 -97 -509 -19 -50 23 -385 271 -1170 865 -605
458 -1102 834 -1105 837 -12 11 52 106 115 168 79 79 167 128 268 150 51 11
427 14 2127 14 1814 1 2073 -1 2129 -14z m-3599 -1356 c229 -173 417 -318 418
-322 4 -12 -1498 -1350 -1506 -1342 -4 4 -8 567 -10 1251 l-2 1245 342 -259
c189 -142 530 -400 758 -573z m4039 -386 c0 -665 -3 -1225 -7 -1246 l-7 -37
-753 669 c-414 369 -752 673 -750 678 3 10 1499 1143 1510 1143 4 0 8 -543 7
-1207z m-3211 -239 c324 -252 407 -289 642 -289 233 0 308 34 648 290 l231
175 800 -713 c440 -391 800 -718 800 -725 2 -27 -152 -166 -220 -199 -136 -67
16 -63 -2250 -63 -1231 0 -2076 4 -2105 9 -132 25 -258 99 -336 196 -27 33
-48 62 -48 67 0 9 1591 1428 1602 1428 5 0 111 -79 236 -176z"/>
</g>
</svg>
