<?xml version="1.0" standalone="no"?>
<!DOCTYPE svg PUBLIC "-//W3C//DTD SVG 20010904//EN"
 "http://www.w3.org/TR/2001/REC-SVG-20010904/DTD/svg10.dtd">
<svg version="1.0" xmlns="http://www.w3.org/2000/svg"
 width="607.000000pt" height="501.000000pt" viewBox="0 0 607.000000 501.000000"
 preserveAspectRatio="xMidYMid meet">
<metadata>
Created by potrace 1.16, written by Peter Selinger 2001-2019
</metadata>
<g transform="translate(0.000000,501.000000) scale(0.100000,-0.100000)"
fill="#000000" stroke="none">
<path d="M1145 4703 c-411 -25 -754 -313 -857 -719 l-23 -89 0 -1395 0 -1395
23 -89 c86 -339 345 -603 678 -691 126 -34 277 -36 2194 -33 l1905 3 100 28
c386 106 661 419 705 805 13 118 13 2626 0 2744 -44 384 -321 704 -696 803
-33 9 -104 20 -159 25 -89 8 -3741 11 -3870 3z m3913 -398 c179 -42 330 -175
399 -351 25 -65 27 -80 31 -264 l3 -195 -1178 -540 c-1172 -537 -1178 -540
-1243 -540 -65 0 -71 3 -1242 540 l-1178 540 0 170 c0 190 10 247 63 355 63
128 217 249 363 284 90 22 3890 23 3982 1z m-3253 -1765 c567 -260 1050 -479
1075 -487 118 -36 273 -35 386 3 27 9 510 228 1074 487 564 258 1053 482 1088
498 l62 28 -2 -977 -3 -977 -28 -69 c-71 -177 -220 -309 -399 -351 -96 -22
-3881 -22 -3977 0 -150 36 -304 155 -368 285 -66 134 -63 87 -63 1137 l0 952
63 -28 c34 -16 526 -241 1092 -501z"/>
</g>
</svg>
