<?xml version="1.0" standalone="no"?>
<!DOCTYPE svg PUBLIC "-//W3C//DTD SVG 20010904//EN"
 "http://www.w3.org/TR/2001/REC-SVG-20010904/DTD/svg10.dtd">
<svg version="1.0" xmlns="http://www.w3.org/2000/svg"
 width="547.000000pt" height="547.000000pt" viewBox="0 0 547.000000 547.000000"
 preserveAspectRatio="xMidYMid meet">
<metadata>
Created by potrace 1.16, written by Peter Selinger 2001-2019
</metadata>
<g transform="translate(0.000000,547.000000) scale(0.100000,-0.100000)"
fill="#000000" stroke="none">
<path d="M4825 4988 c-408 -38 -882 -245 -1160 -507 -49 -47 -111 -105 -136
-129 l-46 -43 -1000 206 c-813 167 -1005 204 -1027 195 -31 -12 -430 -333
-451 -363 -20 -29 -19 -90 3 -116 9 -12 327 -168 706 -347 757 -358 727 -347
780 -283 31 36 33 73 7 114 -16 25 -113 74 -623 315 l-604 284 111 90 c60 49
115 93 121 98 9 6 1700 -332 1785 -358 12 -3 -82 -101 -320 -333 -390 -382
-927 -922 -1159 -1165 l-161 -170 -553 -32 c-304 -18 -557 -33 -562 -34 -5 0
-74 -64 -153 -142 -153 -152 -175 -186 -154 -240 5 -15 20 -34 33 -42 31 -20
484 -186 508 -186 33 0 71 23 86 51 18 36 18 63 -1 99 -15 29 -20 32 -257 120
-99 37 -99 37 -26 107 l43 41 380 21 c209 12 399 23 423 26 l44 5 -124 -138
c-249 -275 -411 -468 -432 -512 -28 -62 -28 -168 0 -231 50 -108 141 -169 254
-169 37 0 82 5 101 12 19 6 192 110 386 230 194 120 354 218 356 218 4 0 -197
-839 -207 -865 -5 -14 -125 -99 -131 -93 -1 1 -15 73 -29 158 -15 85 -31 172
-37 192 -19 75 -100 101 -158 52 -26 -21 -31 -33 -31 -68 0 -44 72 -474 90
-538 13 -47 43 -68 95 -68 35 0 62 15 207 115 151 104 168 119 177 153 6 20
67 273 136 562 69 289 128 532 131 542 3 9 78 63 167 119 446 283 790 516
1382 934 191 135 350 244 352 242 4 -4 21 -1144 24 -1565 l1 -262 -113 -95
c-62 -52 -115 -95 -119 -95 -3 0 -80 289 -170 642 -174 677 -174 679 -234 694
-54 13 -109 -21 -121 -75 -3 -17 60 -282 180 -746 102 -396 190 -732 196 -747
14 -34 70 -62 108 -53 29 6 433 337 460 376 13 18 13 150 3 967 -7 521 -12
983 -12 1028 l0 81 139 97 c213 149 411 359 553 588 107 172 222 445 248 587
38 209 -116 421 -325 449 -33 4 -96 4 -140 0z m130 -199 c55 -15 120 -82 135
-139 15 -54 6 -97 -46 -237 -104 -277 -283 -550 -485 -737 -88 -81 -1193 -863
-1684 -1191 -642 -430 -1663 -1068 -1709 -1068 -36 0 -86 51 -86 88 0 78 998
1150 1813 1947 836 818 965 939 1081 1017 247 164 518 270 806 314 121 19 127
19 175 6z"/>
</g>
</svg>
