<?xml version="1.0" standalone="no"?>
<!DOCTYPE svg PUBLIC "-//W3C//DTD SVG 20010904//EN"
 "http://www.w3.org/TR/2001/REC-SVG-20010904/DTD/svg10.dtd">
<svg version="1.0" xmlns="http://www.w3.org/2000/svg"
 width="579.000000pt" height="579.000000pt" viewBox="0 0 579.000000 579.000000"
 preserveAspectRatio="xMidYMid meet">
<metadata>
Created by potrace 1.16, written by Peter Selinger 2001-2019
</metadata>
<g transform="translate(0.000000,579.000000) scale(0.100000,-0.100000)"
fill="#000000" stroke="none">
<path d="M1722 4973 l-1202 -697 0 -1395 0 -1396 1201 -695 c660 -382 1205
-694 1212 -692 6 2 548 315 1204 695 l1193 692 -2 1398 -3 1398 -1198 695
c-659 381 -1199 694 -1200 694 -2 0 -544 -314 -1205 -697z m2311 -189 l1086
-629 -2 -1274 -2 -1274 -1075 -624 c-591 -343 -1084 -629 -1095 -634 -17 -8
-195 91 -1115 625 l-1095 635 0 1272 0 1273 1090 633 c600 348 1097 631 1106
629 9 -2 505 -286 1102 -632z"/>
<path d="M1916 4279 c-113 -27 -224 -121 -279 -237 -30 -62 -32 -75 -32 -172
0 -126 17 -172 95 -254 71 -75 150 -110 250 -110 63 -1 84 4 132 27 92 45 168
147 184 246 l7 41 -102 0 c-89 0 -101 -2 -101 -17 0 -31 -36 -79 -69 -92 -38
-16 -88 -8 -131 22 -93 63 -92 204 0 294 92 90 251 82 364 -18 48 -42 73 -84
92 -158 50 -199 -120 -431 -348 -475 l-58 -11 0 -97 0 -98 25 0 c57 0 184 34
255 67 98 47 220 168 267 265 93 189 88 402 -11 553 -73 110 -180 188 -301
220 -64 16 -177 18 -239 4z"/>
<path d="M2700 3905 l-95 -95 73 -72 72 -73 68 68 68 67 79 0 80 0 75 -75 75
-75 85 -6 85 -6 80 81 80 81 80 0 80 0 75 -75 75 -75 85 -6 85 -6 80 81 80 81
80 0 80 0 92 -98 91 -99 7 -79 7 -79 -66 -73 -66 -73 0 -87 0 -87 65 -75 65
-75 0 -165 0 -165 -134 -82 -135 -83 -744 0 -745 0 -83 69 c-83 67 -85 71
-144 194 -42 89 -66 128 -80 132 -11 2 -142 21 -290 40 l-270 36 -259 -60
c-142 -34 -262 -58 -267 -55 -19 11 -92 129 -123 197 l-33 72 178 195 c98 107
179 200 179 206 0 6 -33 41 -74 77 l-74 67 -221 -243 c-122 -133 -221 -250
-221 -259 0 -28 50 -157 95 -248 69 -138 162 -249 240 -287 15 -7 92 7 306 57
l285 67 205 -28 c112 -16 207 -28 211 -29 4 0 28 -44 53 -98 45 -97 47 -98
160 -191 l115 -94 0 -208 0 -209 -65 0 -65 0 0 -105 0 -105 170 0 170 0 0 300
0 300 130 0 130 0 0 -260 0 -260 -65 0 -65 0 0 -105 0 -105 170 0 170 0 0 365
0 365 160 0 160 0 0 -195 0 -195 -100 0 -100 0 0 -105 0 -105 205 0 205 0 0
300 0 300 130 0 130 0 0 -260 0 -260 -65 0 -65 0 0 -105 0 -105 170 0 170 0 2
377 3 377 188 120 187 120 0 260 0 261 -77 77 -78 78 78 78 77 77 0 165 0 165
-147 147 -148 147 -172 3 -173 3 -75 -75 -75 -74 -72 71 -73 71 -172 4 -172 3
-76 -75 -75 -74 -72 71 -73 71 -170 6 -171 6 -94 -95z"/>
<path d="M3022 3367 l-92 -92 70 -70 70 -69 63 62 63 62 85 0 85 0 74 -75 74
-75 86 0 86 0 74 75 74 75 85 0 85 0 63 -62 63 -63 72 73 73 72 -90 90 -90 90
-170 0 -171 0 -74 -75 -75 -75 -75 75 -75 75 -170 0 -170 0 -93 -93z"/>
<path d="M3340 2943 l-95 -93 72 -72 73 -73 68 68 68 67 79 0 79 0 66 -65 66
-65 69 70 70 70 -90 89 -90 89 -170 4 -170 5 -95 -94z"/>
</g>
</svg>
